<?xml version="1.0" encoding="UTF-8"?>
<svg version="1.1" xmlns="http://www.w3.org/2000/svg" width="996" height="996">
<path d="M0 0 C1.48047999 0.20714052 2.96112106 0.41313207 4.44189453 0.61816406 C36.09869279 5.03511116 66.62804483 11.88939407 97 22 C98.24894043 22.41233887 99.49788086 22.82467773 100.78466797 23.24951172 C127.9071756 32.25147918 153.83366063 43.51026901 178.67919922 57.68310547 C180.81745959 58.8964209 182.96813748 60.0812779 185.12890625 61.25390625 C212.14530889 75.98859219 237.22247845 94.02216896 260.54736328 114.04956055 C262.74525549 115.9330527 264.95409809 117.8017779 267.17651367 119.65625 C275.49006998 126.63003482 283.30661303 133.99347132 290.9519043 141.69116211 C292.82183141 143.57188528 294.70232638 145.44156819 296.58398438 147.31054688 C302.78512441 153.50527368 308.68744792 159.74547492 314.10888672 166.64355469 C316.07779206 169.09693377 318.16228703 171.39237193 320.3125 173.6875 C325.83545083 179.75794335 330.64028937 186.33692944 335.49023438 192.94628906 C336.93819395 194.91592619 338.39699381 196.87699395 339.859375 198.8359375 C355.43454948 219.76866585 368.84678969 241.92295037 381 265 C381.50176758 265.95148926 382.00353516 266.90297852 382.52050781 267.88330078 C390.70890063 283.53076655 397.62107199 299.53874395 404 316 C404.54068115 317.37043457 404.54068115 317.37043457 405.09228516 318.76855469 C419.34117114 355.03472935 427.77059444 393.48433265 433 432 C433.24991699 433.75159424 433.24991699 433.75159424 433.50488281 435.53857422 C438.94564185 475.06011269 438.61036088 518.53042703 433 558 C432.74259033 559.92271729 432.74259033 559.92271729 432.47998047 561.88427734 C428.53512651 591.22133835 421.91623474 619.76145992 413 648 C412.57533447 649.37043457 412.57533447 649.37043457 412.14208984 650.76855469 C404.58878774 675.05636671 394.4012289 698.29229974 383 721 C382.5359375 721.92538574 382.071875 722.85077148 381.59375 723.80419922 C372.26926859 742.27104325 361.74898626 759.97497085 350 777 C349.53625977 777.67627441 349.07251953 778.35254883 348.59472656 779.04931641 C341.89447884 788.79533473 334.86468654 798.18323284 327.36669922 807.32910156 C326.10132404 808.8761233 324.84890674 810.43371941 323.59765625 811.9921875 C319.09990397 817.57287838 314.41835057 822.93434442 309.5546875 828.19921875 C308.20838976 829.67520572 306.86655239 831.15609092 305.56835938 832.67456055 C300.45545499 838.65488811 294.95534215 844.23078826 289.39501953 849.7902832 C287.76172552 851.42575882 286.1366153 853.06907708 284.51171875 854.71289062 C278.73463743 860.52022675 272.86994521 865.95899174 266.43408203 871.03955078 C263.90136625 873.07944122 261.51118131 875.22887715 259.125 877.4375 C191.66474426 938.65926814 97.4412805 977.16783803 -19 992 C-20.06476562 992.0942627 -21.12953125 992.18852539 -22.2265625 992.28564453 C-35.04693052 993.30362546 -47.89681631 993.24276015 -60.75 993.25 C-61.99099457 993.25100708 -63.23198914 993.25201416 -64.5105896 993.25305176 C-84.83703433 993.24192483 -104.82657645 992.47786371 -125 990 C-126.14887695 989.86609863 -127.29775391 989.73219727 -128.48144531 989.59423828 C-157.86151365 986.08242194 -186.85043045 978.99757931 -215 970 C-216.52923096 969.52095215 -216.52923096 969.52095215 -218.08935547 969.03222656 C-278.85701228 949.94848929 -336.25484298 917.41023288 -384.54443359 875.953125 C-386.7496218 874.06348398 -388.96544146 872.18806548 -391.1940918 870.32617188 C-399.34347241 863.48370035 -407.02823559 856.28595702 -414.5246582 848.73608398 C-416.32215805 846.92778392 -418.13022316 845.13054023 -419.93945312 843.33398438 C-426.00085453 837.27909588 -431.74471325 831.16641082 -437.04248047 824.42285156 C-439.18697021 821.76858414 -441.47106932 819.2937949 -443.8125 816.8125 C-449.53712491 810.58276113 -454.51590724 803.86113005 -459.50634766 797.03759766 C-460.94614353 795.07346945 -462.39855343 793.11941944 -463.85546875 791.16796875 C-478.88927039 770.96918005 -491.79719994 749.64543244 -503.67333984 727.45654297 C-504.79753188 725.37490508 -505.94443773 723.31063773 -507.11328125 721.25390625 C-541.53323316 659.61154932 -559.94157293 582.54652678 -560.203125 512.1953125 C-560.21013931 510.92510254 -560.21715363 509.65489258 -560.22438049 508.34619141 C-560.24177847 504.27242145 -560.24881422 500.1987991 -560.25 496.125 C-560.25044186 495.43074669 -560.25088371 494.73649338 -560.25133896 494.02120209 C-560.25829087 473.19138875 -559.93674414 452.66035314 -557 432 C-556.82839355 430.71818848 -556.65678711 429.43637695 -556.47998047 428.11572266 C-544.48058495 338.88405168 -508.56580954 252.44612541 -451.35351562 182.65332031 C-450.12919937 181.15781712 -448.9155198 179.65362152 -447.703125 178.1484375 C-437.34970368 165.33891259 -426.49106162 153.15323046 -414.80615234 141.54541016 C-412.86186462 139.61193768 -410.92863436 137.66786287 -408.99609375 135.72265625 C-401.96549067 128.68456483 -394.80796641 122.173438 -387 116 C-385.27448518 114.53463972 -383.57205507 113.04633149 -381.87060547 111.55322266 C-373.91103133 104.57643517 -365.5704874 98.20390975 -357 92 C-356.24477051 91.45085937 -355.48954102 90.90171875 -354.71142578 90.3359375 C-335.50067425 76.43086141 -315.29234552 64.42376814 -294.37597656 53.27832031 C-292.32667007 52.17575467 -290.29646506 51.04821576 -288.2734375 49.8984375 C-238.99533663 22.37067081 -181.6835884 7.99015646 -126.15411377 0.3013916 C-124.19760478 0.02764776 -122.24296306 -0.25936001 -120.28857422 -0.54785156 C-81.77820426 -6.08313263 -38.44554775 -5.6750302 0 0 Z " fill="#000000" transform="translate(560,3)"/>
<path d="M0 0 C1.48047999 0.20714052 2.96112106 0.41313207 4.44189453 0.61816406 C36.09869279 5.03511116 66.62804483 11.88939407 97 22 C98.24894043 22.41233887 99.49788086 22.82467773 100.78466797 23.24951172 C127.9071756 32.25147918 153.83366063 43.51026901 178.67919922 57.68310547 C180.81745959 58.8964209 182.96813748 60.0812779 185.12890625 61.25390625 C212.14530889 75.98859219 237.22247845 94.02216896 260.54736328 114.04956055 C262.74525549 115.9330527 264.95409809 117.8017779 267.17651367 119.65625 C275.49006998 126.63003482 283.30661303 133.99347132 290.9519043 141.69116211 C292.82183141 143.57188528 294.70232638 145.44156819 296.58398438 147.31054688 C302.78512441 153.50527368 308.68744792 159.74547492 314.10888672 166.64355469 C316.07779206 169.09693377 318.16228703 171.39237193 320.3125 173.6875 C325.83545083 179.75794335 330.64028937 186.33692944 335.49023438 192.94628906 C336.93819395 194.91592619 338.39699381 196.87699395 339.859375 198.8359375 C355.43454948 219.76866585 368.84678969 241.92295037 381 265 C381.50176758 265.95148926 382.00353516 266.90297852 382.52050781 267.88330078 C390.70890063 283.53076655 397.62107199 299.53874395 404 316 C404.54068115 317.37043457 404.54068115 317.37043457 405.09228516 318.76855469 C419.34117114 355.03472935 427.77059444 393.48433265 433 432 C433.24991699 433.75159424 433.24991699 433.75159424 433.50488281 435.53857422 C438.94564185 475.06011269 438.61036088 518.53042703 433 558 C432.74259033 559.92271729 432.74259033 559.92271729 432.47998047 561.88427734 C428.53512651 591.22133835 421.91623474 619.76145992 413 648 C412.57533447 649.37043457 412.57533447 649.37043457 412.14208984 650.76855469 C404.58878774 675.05636671 394.4012289 698.29229974 383 721 C382.5359375 721.92538574 382.071875 722.85077148 381.59375 723.80419922 C372.26926859 742.27104325 361.74898626 759.97497085 350 777 C349.53625977 777.67627441 349.07251953 778.35254883 348.59472656 779.04931641 C341.89447884 788.79533473 334.86468654 798.18323284 327.36669922 807.32910156 C326.10132404 808.8761233 324.84890674 810.43371941 323.59765625 811.9921875 C319.09990397 817.57287838 314.41835057 822.93434442 309.5546875 828.19921875 C308.20838976 829.67520572 306.86655239 831.15609092 305.56835938 832.67456055 C300.45545499 838.65488811 294.95534215 844.23078826 289.39501953 849.7902832 C287.76172552 851.42575882 286.1366153 853.06907708 284.51171875 854.71289062 C278.73463743 860.52022675 272.86994521 865.95899174 266.43408203 871.03955078 C263.90136625 873.07944122 261.51118131 875.22887715 259.125 877.4375 C191.66474426 938.65926814 97.4412805 977.16783803 -19 992 C-20.06476562 992.0942627 -21.12953125 992.18852539 -22.2265625 992.28564453 C-35.04693052 993.30362546 -47.89681631 993.24276015 -60.75 993.25 C-61.99099457 993.25100708 -63.23198914 993.25201416 -64.5105896 993.25305176 C-84.83703433 993.24192483 -104.82657645 992.47786371 -125 990 C-126.14887695 989.86609863 -127.29775391 989.73219727 -128.48144531 989.59423828 C-157.86151365 986.08242194 -186.85043045 978.99757931 -215 970 C-216.52923096 969.52095215 -216.52923096 969.52095215 -218.08935547 969.03222656 C-278.85701228 949.94848929 -336.25484298 917.41023288 -384.54443359 875.953125 C-386.7496218 874.06348398 -388.96544146 872.18806548 -391.1940918 870.32617188 C-399.34347241 863.48370035 -407.02823559 856.28595702 -414.5246582 848.73608398 C-416.32215805 846.92778392 -418.13022316 845.13054023 -419.93945312 843.33398438 C-426.00085453 837.27909588 -431.74471325 831.16641082 -437.04248047 824.42285156 C-439.18697021 821.76858414 -441.47106932 819.2937949 -443.8125 816.8125 C-449.53712491 810.58276113 -454.51590724 803.86113005 -459.50634766 797.03759766 C-460.94614353 795.07346945 -462.39855343 793.11941944 -463.85546875 791.16796875 C-478.88927039 770.96918005 -491.79719994 749.64543244 -503.67333984 727.45654297 C-504.79753188 725.37490508 -505.94443773 723.31063773 -507.11328125 721.25390625 C-541.53323316 659.61154932 -559.94157293 582.54652678 -560.203125 512.1953125 C-560.21013931 510.92510254 -560.21715363 509.65489258 -560.22438049 508.34619141 C-560.24177847 504.27242145 -560.24881422 500.1987991 -560.25 496.125 C-560.25044186 495.43074669 -560.25088371 494.73649338 -560.25133896 494.02120209 C-560.25829087 473.19138875 -559.93674414 452.66035314 -557 432 C-556.82839355 430.71818848 -556.65678711 429.43637695 -556.47998047 428.11572266 C-544.48058495 338.88405168 -508.56580954 252.44612541 -451.35351562 182.65332031 C-450.12919937 181.15781712 -448.9155198 179.65362152 -447.703125 178.1484375 C-437.34970368 165.33891259 -426.49106162 153.15323046 -414.80615234 141.54541016 C-412.86186462 139.61193768 -410.92863436 137.66786287 -408.99609375 135.72265625 C-401.96549067 128.68456483 -394.80796641 122.173438 -387 116 C-385.27448518 114.53463972 -383.57205507 113.04633149 -381.87060547 111.55322266 C-373.91103133 104.57643517 -365.5704874 98.20390975 -357 92 C-356.24477051 91.45085937 -355.48954102 90.90171875 -354.71142578 90.3359375 C-335.50067425 76.43086141 -315.29234552 64.42376814 -294.37597656 53.27832031 C-292.32667007 52.17575467 -290.29646506 51.04821576 -288.2734375 49.8984375 C-238.99533663 22.37067081 -181.6835884 7.99015646 -126.15411377 0.3013916 C-124.19760478 0.02764776 -122.24296306 -0.25936001 -120.28857422 -0.54785156 C-81.77820426 -6.08313263 -38.44554775 -5.6750302 0 0 Z M-130.3125 24.0625 C-131.52744141 24.23587891 -132.74238281 24.40925781 -133.99414062 24.58789062 C-139.6660588 25.21298834 -139.6660588 25.21298834 -145 27 C-146.93398808 27.27585566 -148.87253909 27.51987415 -150.8125 27.75 C-194.75139372 33.84764239 -237.58599433 51.37788485 -277 71 C-278.34674805 71.66636475 -278.34674805 71.66636475 -279.72070312 72.34619141 C-301.19614056 83.03967233 -321.7562767 95.67190678 -341 110 C-341.56396484 110.41910645 -342.12792969 110.83821289 -342.70898438 111.27001953 C-346.52045005 114.11959757 -350.27408881 117.03946857 -354 120 C-354.63824707 120.5067627 -355.27649414 121.01352539 -355.93408203 121.53564453 C-363.62596704 127.66520176 -371.17375411 133.8821461 -378.375 140.5859375 C-380.41645973 142.46335136 -382.48383179 144.27187812 -384.58984375 146.07421875 C-389.62602789 150.46655575 -394.33301931 155.18281839 -399.0456543 159.9152832 C-400.5599258 161.43491668 -402.0794743 162.94912517 -403.59960938 164.46289062 C-408.94368299 169.80298264 -414.10820162 175.23854857 -419 181 C-419.94900247 182.08336318 -420.89947104 183.16544426 -421.8515625 184.24609375 C-476.06907051 246.40093665 -514.52354548 324.72486569 -529 406 C-529.20963379 407.14227051 -529.41926758 408.28454102 -529.63525391 409.46142578 C-539.17591958 462.03658343 -540.07593215 516.02245048 -531.51464844 568.81445312 C-531.03305277 571.79541152 -530.58023218 574.77938279 -530.1328125 577.765625 C-518.43839547 653.04595703 -484.28600793 727.5461753 -437 787 C-435.84371094 788.4540625 -435.84371094 788.4540625 -434.6640625 789.9375 C-432.4692194 792.64832376 -430.24168018 795.32782415 -428 798 C-426.75863281 799.50240234 -426.75863281 799.50240234 -425.4921875 801.03515625 C-415.17110312 813.46398705 -404.02239915 825.05853469 -392.625 836.5 C-391.79299072 837.33668213 -390.96098145 838.17336426 -390.10375977 839.03540039 C-385.23014452 843.89633536 -380.23852385 848.53608788 -375 853 C-373.99062629 853.87730612 -372.98149269 854.75488861 -371.97265625 855.6328125 C-363.2428031 863.10884781 -354.20576014 870.12114957 -345 877 C-344.2977832 877.52851562 -343.59556641 878.05703125 -342.87207031 878.6015625 C-323.37622407 893.22569843 -302.58169391 905.71814096 -281 917 C-280.08379883 917.48533203 -279.16759766 917.97066406 -278.22363281 918.47070312 C-265.87824859 924.98453463 -253.30432649 930.70161813 -240.375 935.9375 C-239.70994446 936.20690399 -239.04488892 936.47630798 -238.35968018 936.75387573 C-226.5837792 941.50308182 -214.73352642 946.20889248 -202.4375 949.4375 C-200.90466964 949.85053114 -199.37212948 950.26464042 -197.83984375 950.6796875 C-197.05335449 950.89206055 -196.26686523 951.10443359 -195.45654297 951.32324219 C-192.90218154 952.0269482 -190.35890852 952.76244119 -187.81640625 953.5078125 C-179.40247825 955.97324221 -170.99811592 958.3442701 -162.4375 960.25 C-161.76074219 960.40090088 -161.08398438 960.55180176 -160.38671875 960.70727539 C-154.29412417 962.01715371 -148.15178815 963.01251938 -142 964 C-140.93918213 964.17063965 -139.87836426 964.3412793 -138.78540039 964.51708984 C-126.32503153 966.4936842 -113.97473528 968.37399008 -101.35546875 968.82421875 C-98 969 -98 969 -95.14535522 969.50091553 C-92.14601868 969.97683071 -89.35194671 970.13947079 -86.31884766 970.16113281 C-85.22022903 970.17059937 -84.12161041 970.18006592 -82.98970032 970.18981934 C-81.80973984 970.19421021 -80.62977936 970.19860107 -79.4140625 970.203125 C-78.17669846 970.21009399 -76.93933441 970.21706299 -75.66447449 970.22424316 C-71.65127871 970.24168782 -67.63822551 970.24842388 -63.625 970.25 C-62.94441402 970.25058914 -62.26382805 970.25117828 -61.56261826 970.25178528 C-40.89212236 970.26445685 -20.50442455 969.90029689 0 967 C1.11117187 966.85014648 2.22234375 966.70029297 3.3671875 966.54589844 C17.05467614 964.66745813 30.40514038 961.89680605 43.79736328 958.53320312 C46.72277848 957.82503345 49.66987192 957.25733928 52.625 956.6875 C69.80090899 953.07151916 86.7114982 947.49678529 103 941 C105.18680721 940.16485036 107.37428994 939.33146703 109.5625 938.5 C111.70918209 937.66885552 113.85499054 936.83545171 116 936 C117.19238281 935.53851562 118.38476562 935.07703125 119.61328125 934.6015625 C141.35340736 926.11247965 162.41976369 915.47405694 182.21533203 903.11083984 C184.09278766 901.94224571 185.98105194 900.79264361 187.87109375 899.64453125 C197.88947987 893.52129758 207.50825821 886.90807387 217 880 C217.69158203 879.49678223 218.38316406 878.99356445 219.09570312 878.47509766 C227.17887277 872.56480264 235.03736836 866.46744834 242.61206055 859.91674805 C244.77283109 858.04920256 246.94777563 856.20171664 249.14233398 854.37402344 C257.68191798 847.22635045 265.65478347 839.62708756 273.48901367 831.71679688 C275.45494718 829.73238887 277.4289848 827.7563186 279.40429688 825.78125 C285.47759847 819.69106673 291.46993097 813.59503819 297 807 C297.845625 806.03578125 298.69125 805.0715625 299.5625 804.078125 C307.87892485 794.42893975 315.47059251 784.26978534 323 774 C323.53270508 773.27796387 324.06541016 772.55592773 324.61425781 771.81201172 C349.6565221 737.74325924 368.9918495 699.44950592 383.87207031 659.97412109 C384.82627473 657.45807819 385.80456008 654.95504802 386.8046875 652.45703125 C390.71859109 642.58670912 393.46735619 632.48157869 396.13574219 622.21655273 C396.78851241 619.78710423 397.46637381 617.37230351 398.16894531 614.95727539 C401.30196773 604.12262507 403.68483498 593.29482682 405.625 582.1875 C405.77374573 581.34915619 405.92249146 580.51081238 406.07574463 579.64706421 C411.11972736 551.08756273 413.22624401 522.42609479 413.25 493.4375 C413.25100708 492.56414001 413.25201416 491.69078003 413.25305176 490.79095459 C413.23918641 472.74031671 412.06516199 454.92578584 410 437 C409.79914795 435.24405518 409.79914795 435.24405518 409.59423828 433.45263672 C405.52448229 399.47880697 397.68326833 363.85863667 385 332 C384.68409912 331.17725586 384.36819824 330.35451172 384.04272461 329.50683594 C363.83857458 276.96771806 336.1216441 228.44262175 299 186 C298.05447266 184.90558594 298.05447266 184.90558594 297.08984375 183.7890625 C295.40572661 181.84791609 293.70428774 179.9234528 292 178 C291.39091797 177.30680664 290.78183594 176.61361328 290.15429688 175.89941406 C284.25655503 169.25537029 278.09703501 162.91082343 271.81689453 156.6315918 C270.12892145 154.94142654 268.44914276 153.24339166 266.76953125 151.54492188 C260.8859528 145.63157837 254.92404396 140.07457105 248.37207031 134.8984375 C246.04003542 133.03204152 243.82725043 131.07942969 241.625 129.0625 C216.89795605 106.90846415 186.90810205 87.29694892 157 73 C155.24840294 72.10107476 153.49686656 71.2020294 151.74633789 70.30102539 C135.98019934 62.2418037 119.63623246 55.06424026 103 49 C101.52172083 48.44380899 100.0438929 47.88641787 98.56640625 47.328125 C80.681937 40.59922497 63.00107137 35.73908454 44.31103516 31.72753906 C41.31599016 31.06943302 38.33509638 30.37267847 35.35546875 29.6484375 C25.31519684 27.21769291 15.28858845 25.29572134 5.0625 23.8125 C4.00490479 23.65765137 2.94730957 23.50280273 1.85766602 23.34326172 C-1.75656723 22.84577346 -5.37451733 22.40536794 -9 22 C-10.17746796 21.86709564 -10.17746796 21.86709564 -11.37872314 21.73150635 C-26.95859323 20.03308973 -42.44265057 19.68800452 -58.10644531 19.73925781 C-61.99560121 19.74998786 -65.88429539 19.73928811 -69.7734375 19.7265625 C-90.1636985 19.71420129 -110.14712047 21.04743757 -130.3125 24.0625 Z " fill="#5E8FEB" transform="translate(560,3)"/>
<path d="M0 0 C0.33 0 0.66 0 1 0 C1 88.77 1 177.54 1 269 C-18.8 269 -38.6 269 -59 269 C-59.24258929 240.21771391 -59.44565785 211.43620184 -59.56171862 182.65314728 C-59.57547608 179.25362633 -59.58971366 175.85410755 -59.60424805 172.45458984 C-59.60713346 171.77781877 -59.61001888 171.1010477 -59.61299173 170.40376842 C-59.66083206 159.451306 -59.74754746 148.49947991 -59.84868076 137.54739475 C-59.95161786 126.30605192 -60.01183769 115.06502645 -60.03497344 103.82318878 C-60.04931682 97.50992936 -60.08302952 91.19811214 -60.16303062 84.88531494 C-60.23773442 78.9423363 -60.26072079 73.00139269 -60.24418449 67.05798912 C-60.24720916 64.8778343 -60.2690722 62.69761101 -60.31126022 60.51786232 C-60.61463749 44.03363466 -60.61463749 44.03363466 -56.60013294 38.97736931 C-53.80457916 36.91012281 -51.1586483 35.43058943 -48 34 C-46.72189931 33.16695139 -45.45592155 32.31404994 -44.21801758 31.42236328 C-43.09078581 30.6778429 -41.96211565 29.93549579 -40.83203125 29.1953125 C-35.46641999 25.64914814 -30.13264694 22.06090203 -24.82421875 18.4296875 C-23.46945358 17.50513135 -22.11463598 16.58065201 -20.75976562 15.65625 C-18.6954557 14.24737527 -16.63220098 12.83704932 -14.5715332 11.42285156 C-12.53361255 10.0250697 -10.491821 8.63311571 -8.44921875 7.2421875 C-7.51815559 6.60021927 -7.51815559 6.60021927 -6.56828308 5.94528198 C-2.22746333 3 -2.22746333 3 0 3 C0 2.01 0 1.02 0 0 Z " fill="#0696E8" transform="translate(304,359)"/>
<path d="M0 0 C0 67.65 0 135.3 0 205 C-19.8 205 -39.6 205 -60 205 C-60.52048407 183.76285718 -60.94356794 162.53092395 -61.19167995 141.28900909 C-61.30997812 131.4245526 -61.47102632 121.56435649 -61.73510742 111.70263672 C-61.96535196 103.10034588 -62.11295798 94.50113998 -62.16403538 85.89585352 C-62.19387655 81.34301586 -62.26320218 76.79899665 -62.43179131 72.24900818 C-63.41512613 44.66106757 -63.41512613 44.66106757 -57.7467289 36.92466736 C-52.38424167 31.81531179 -46.38413354 28.37091979 -39.69252014 25.28027344 C-36.13961687 23.59089418 -33.11772593 21.5098327 -29.92578125 19.21875 C-28.05634574 17.97666726 -26.1853563 16.73691873 -24.3125 15.5 C-23.37212891 14.87609375 -22.43175781 14.2521875 -21.46289062 13.609375 C-19.59816724 12.37219046 -17.73248154 11.13645483 -15.86572266 9.90234375 C-13.79280927 8.52628811 -11.72505173 7.14402564 -9.66162109 5.75390625 C-8.57059082 5.02042969 -7.47956055 4.28695313 -6.35546875 3.53125 C-5.35539795 2.85642578 -4.35532715 2.18160156 -3.32495117 1.48632812 C-1 0 -1 0 0 0 Z " fill="#05AADF" transform="translate(213,423)"/>
<path d="M0 0 C0 47.19 0 94.38 0 143 C-20.13 143 -40.26 143 -61 143 C-61.4411969 117.86514615 -61.4411969 117.86514615 -61.53710938 107.1328125 C-61.60281573 99.81518589 -61.68045108 92.4990763 -61.82983398 85.18261719 C-61.94955003 79.28210374 -62.01516525 73.38321698 -62.04364967 67.48158264 C-62.06394146 65.23273608 -62.10357052 62.98397652 -62.16303062 60.73582458 C-62.6099156 43.1358665 -62.6099156 43.1358665 -58.69615173 37.9434967 C-55.87892181 35.86155513 -53.19916438 34.4071445 -50 33 C-48.85458264 32.25477209 -47.72365772 31.48576791 -46.62182617 30.67749023 C-45.68830322 30.06075439 -44.75478027 29.44401855 -43.79296875 28.80859375 C-42.72159668 28.09815918 -41.65022461 27.38772461 -40.54638672 26.65576172 C-39.72361237 26.11239166 -39.72361237 26.11239166 -38.88421631 25.55804443 C-35.9467315 23.61807237 -33.01413769 21.67074466 -30.08203125 19.72265625 C-29.19578064 19.1339978 -29.19578064 19.1339978 -28.29162598 18.53344727 C-21.32656545 13.89898295 -14.42675648 9.16932685 -7.53979492 4.41967773 C-6.68877197 3.83516846 -5.83774902 3.25065918 -4.9609375 2.6484375 C-4.21634277 2.13458496 -3.47174805 1.62073242 -2.70458984 1.09130859 C-1 0 -1 0 0 0 Z " fill="#01CEDC" transform="translate(121,485)"/>
<path d="M0 0 C3.96 0 7.92 0 12 0 C12 11.55 12 23.1 12 35 C25.2 34.67 38.4 34.34 52 34 C53.73870411 27.38569507 53.73870411 27.38569507 51 24 C48.09386566 23.48853802 48.09386566 23.48853802 44.6796875 23.48828125 C42.79443359 23.43510742 42.79443359 23.43510742 40.87109375 23.38085938 C39.55238281 23.35830078 38.23367188 23.33574219 36.875 23.3125 C35.53512241 23.27933471 34.19527689 23.24484578 32.85546875 23.20898438 C29.5703967 23.12626673 26.28559968 23.05719307 23 23 C23 25.64 23 28.28 23 31 C20.69 31 18.38 31 16 31 C16 20.77 16 10.54 16 0 C21.19412835 -0.13885294 26.38165581 -0.25792158 31.57617188 -0.32958984 C33.33746316 -0.3595022 35.0986089 -0.40024866 36.859375 -0.45263672 C48.84480037 -0.79994166 58.85802094 -0.49030745 68.24487305 8.04003906 C75.24188507 15.34437451 76.45397506 21.6622951 76.328125 31.5625 C76.0222719 34.76667537 75.40158783 36.95708496 74.125 39.875 C73.20760438 41.92429568 73.20760438 41.92429568 73 44 C74.15548855 46.32848451 75.50533762 47.99859607 77.2890625 49.8828125 C81.76345235 55.41961455 82.55622216 60.92273018 82.5 67.8125 C82.49572998 68.60495117 82.49145996 69.39740234 82.48706055 70.21386719 C82.29703931 76.76993547 80.8484485 81.6121721 77 87 C76.278125 88.0725 75.55625 89.145 74.8125 90.25 C66.82829693 98.05677633 58.44097388 101.07375422 47.5 101.125 C45.685 101.08375 43.87 101.0425 42 101 C42 96.05 42 91.1 42 86 C37.05 86 32.1 86 27 86 C27 83.36 27 80.72 27 78 C28.15000488 77.970271 28.15000488 77.970271 29.32324219 77.93994141 C32.79917219 77.84464554 36.27450506 77.73498402 39.75 77.625 C40.9565625 77.5940625 42.163125 77.563125 43.40625 77.53125 C44.56640625 77.49257813 45.7265625 77.45390625 46.921875 77.4140625 C47.99018555 77.3826416 49.05849609 77.3512207 50.15917969 77.31884766 C52.9585658 77.00465049 54.64248796 76.50411708 57 75 C59.30567313 71.77205762 59.32369432 68.88433181 59 65 C57.79293121 61.65734795 57.07943151 61.05295434 54 59 C50.70229658 58.62967783 50.70229658 58.62967783 46.92578125 58.5859375 C45.67450439 58.55032715 44.42322754 58.5147168 43.1340332 58.47802734 C41.54292725 58.44402832 39.95182129 58.4100293 38.3125 58.375 C33.259375 58.25125 28.20625 58.1275 23 58 C23 68.56 23 79.12 23 90 C27.95 90 32.9 90 38 90 C38 93.63 38 97.26 38 101 C25.46 101 12.92 101 0 101 C0 67.67 0 34.34 0 0 Z " fill="#FCFCFC" transform="translate(323,470)"/>
<path d="M0 0 C3.96 0 7.92 0 12 0 C12 12.54 12 25.08 12 38 C15.63 38 19.26 38 23 38 C23 42.62 23 47.24 23 52 C24.04865234 51.94239502 25.09730469 51.88479004 26.17773438 51.82543945 C30.09789245 51.62515371 34.01760905 51.49966607 37.94140625 51.39575195 C39.63358762 51.34069147 41.32525161 51.26580729 43.015625 51.17016602 C56.95432614 50.40172937 56.95432614 50.40172937 61.66235352 54.08007812 C63.76666466 56.94582949 65.37637139 59.83926156 67 63 C68.29965672 64.97038933 69.62158613 66.92625972 70.96484375 68.8671875 C72.29119994 70.86837665 73.6153842 72.87100685 74.9375 74.875 C80.06652652 82.61689303 85.23664204 90.316439 90.59375 97.90234375 C92 100 92 100 92 101 C83.06572133 102.9681251 73.71022828 104.39567343 65 101 C54.77222962 92.96142597 47.72095048 77.80237621 43 66 C36.4 66 29.8 66 23 66 C23 74.25 23 82.5 23 91 C17.864375 93.2275 17.864375 93.2275 12.625 95.5 C11.54686035 95.96986328 10.4687207 96.43972656 9.35791016 96.92382812 C8.51019043 97.28927734 7.6624707 97.65472656 6.7890625 98.03125 C5.91975098 98.40830078 5.05043945 98.78535156 4.15478516 99.17382812 C2 100 2 100 0 100 C0 67 0 34 0 0 Z " fill="#FAFAFA" transform="translate(514,470)"/>
<path d="M0 0 C24.75 0 49.5 0 75 0 C75 7.26 75 14.52 75 22 C57.84 22 40.68 22 23 22 C23 27.61 23 33.22 23 39 C39.83 39 56.66 39 74 39 C72.87420428 45.75477435 72.87420428 45.75477435 71.625 48.83203125 C71.36203125 49.48494141 71.0990625 50.13785156 70.828125 50.81054688 C70.55484375 51.47119141 70.2815625 52.13183594 70 52.8125 C69.72671875 53.49248047 69.4534375 54.17246094 69.171875 54.87304688 C67.14553571 59.85446429 67.14553571 59.85446429 66 61 C63.47905924 61.08847743 60.98569107 61.11527301 58.46484375 61.09765625 C57.33496788 61.09553383 57.33496788 61.09553383 56.18226624 61.09336853 C53.7673044 61.08775376 51.35243399 61.07519883 48.9375 61.0625 C47.30403779 61.0574869 45.67057414 61.05292366 44.03710938 61.04882812 C40.02470415 61.03777954 36.01236759 61.02050506 32 61 C32 57.7 32 54.4 32 51 C25.07 51 18.14 51 11 51 C11 46.71 11 42.42 11 38 C7.37 38 3.74 38 0 38 C0 25.46 0 12.92 0 0 Z " fill="#FCFCFC" transform="translate(421,470)"/>
<path d="M0 0 C4.62 0 9.24 0 14 0 C14.391875 1.216875 14.78375 2.43375 15.1875 3.6875 C16.94375492 8.36808505 19.49010161 11.32904554 23.67919922 14.11791992 C26.98906488 15.37591957 30.20518829 15.25850136 33.6953125 15.23828125 C35.23177954 15.25371361 36.76823802 15.27001816 38.3046875 15.28710938 C40.70722476 15.30347477 43.10913102 15.31254707 45.51171875 15.30541992 C63.56015914 15.28491033 63.56015914 15.28491033 71 21 C75.69849801 25.98886806 78.89647812 30.84258269 79.125 37.8125 C79.08375 38.864375 79.0425 39.91625 79 41 C81.97 41 84.94 41 88 41 C87.49179276 50.14773027 84.36161336 57.18873646 77.5625 63.4375 C70.54786145 69.19786543 64.39347894 71.13472648 55.36181641 71.11352539 C54.28114899 71.11344986 53.20048157 71.11337433 52.08706665 71.11329651 C50.93685028 71.10813522 49.78663391 71.10297394 48.6015625 71.09765625 C46.81641739 71.09553383 46.81641739 71.09553383 44.99520874 71.09336853 C41.20511328 71.0877842 37.41507752 71.07523451 33.625 71.0625 C31.0507821 71.05748298 28.47656328 71.05292042 25.90234375 71.04882812 C19.6015396 71.03781989 13.30077991 71.02056597 7 71 C7 63.41 7 55.82 7 48 C10.77953125 47.97421875 14.5590625 47.9484375 18.453125 47.921875 C22.11026487 47.88347189 25.76726291 47.83830584 29.42431641 47.79248047 C31.96754191 47.76424044 34.51085567 47.7430411 37.05419922 47.72900391 C40.70846853 47.70761723 44.36167314 47.66098609 48.015625 47.609375 C49.72362274 47.60753204 49.72362274 47.60753204 51.46612549 47.60565186 C53.05732208 47.57607391 53.05732208 47.57607391 54.68066406 47.54589844 C55.61332092 47.53701599 56.54597778 47.52813354 57.50689697 47.51898193 C60.73679035 46.84662452 61.94598232 45.52519231 64 43 C64.62222293 41.02264923 64.62222293 41.02264923 64.5 39 C64.5103125 38.34 64.520625 37.68 64.53125 37 C63.73662475 34.00846965 62.43154734 32.90231387 60 31 C57.3699812 30.62863248 55.14706649 30.48831421 52.5234375 30.53125 C51.7981485 30.52420044 51.0728595 30.51715088 50.32559204 30.5098877 C47.2372164 30.48055391 44.1494792 30.49689489 41.06103516 30.50927734 C28.60910899 30.52254383 18.92923437 29.24713065 9.046875 21.046875 C2.88937858 14.88937858 0.27782531 8.61258463 0 0 Z " fill="#F9F9F9" transform="translate(809,500)"/>
<path d="M0 0 C7.95531919 2.65177306 15.33529319 5.65134169 23 9 C23.33 16.59 23.66 24.18 24 32 C25.93875 29.69 27.8775 27.38 29.875 25 C52.49731333 -0.90890031 52.49731333 -0.90890031 65.25 -2.125 C72.88618353 -2.52103654 80.53341243 -1.56054081 88 0 C83.06002739 5.96118297 77.71470138 11.41486302 72.2265625 16.87109375 C71.3028183 17.793423 70.3790741 18.71575226 69.42733765 19.66603088 C66.99324569 22.09633814 64.55616403 24.52362496 62.1184082 26.95025635 C59.6226689 29.43569364 57.12982292 31.92402932 54.63671875 34.41210938 C49.7606114 39.27755096 44.88133369 44.13980198 40 49 C43.37591487 53.00970835 46.78392966 56.90646189 50.5234375 60.5859375 C51.31621094 61.37097656 52.10898437 62.15601563 52.92578125 62.96484375 C54.13814453 64.15787109 54.13814453 64.15787109 55.375 65.375 C57.0100546 66.98470492 58.64299638 68.59655984 60.2734375 70.2109375 C60.98935059 70.91524902 61.70526367 71.61956055 62.44287109 72.34521484 C64 74 64 74 64 75 C55.61271018 75.98594941 55.61271018 75.98594941 52.10638428 73.84231567 C50.36706703 72.1399807 48.83550353 70.36464837 47.3046875 68.47265625 C46.09588195 67.10533666 44.88368159 65.74101231 43.66845703 64.37939453 C42.73915375 63.31618988 42.73915375 63.31618988 41.79107666 62.23150635 C30.03587136 48.3956471 30.03587136 48.3956471 13.59082031 42.48071289 C9.03627369 42.67032525 4.51702989 43.38657619 0 44 C0 29.48 0 14.96 0 0 Z " fill="#F9F9F9" transform="translate(713,470)"/>
<path d="M0 0 C2.31 0 4.62 0 7 0 C7 4.62 7 9.24 7 14 C13.93 14 20.86 14 28 14 C28 15.98 28 17.96 28 20 C26.35 20 24.7 20 23 20 C23 25.61 23 31.22 23 37 C40.16 37 57.32 37 75 37 C75 44.59 75 52.18 75 60 C50.25 60 25.5 60 0 60 C0 40.2 0 20.4 0 0 Z " fill="#FBFBFB" transform="translate(421,511)"/>
<path d="M0 0 C3.04094887 1.52047443 3.47215337 3.86887921 4.84375 6.9453125 C5.12523392 7.57091064 5.40671783 8.19650879 5.69673157 8.84106445 C6.63689559 10.93318639 7.56833897 13.02907936 8.5 15.125 C9.84464684 18.12635443 11.1937716 21.12568881 12.54296875 24.125 C12.89719406 24.91399689 13.25141937 25.70299377 13.61637878 26.51589966 C16.34139771 32.57335382 19.12210609 38.60359441 21.92578125 44.625 C22.33388031 45.50268036 22.74197937 46.38036072 23.16244507 47.28463745 C24.77544384 50.752675 26.38882056 54.22049618 28.01123047 57.68414307 C29.14354016 60.10244483 30.26954755 62.52359598 31.39453125 64.9453125 C31.73035721 65.6576001 32.06618317 66.3698877 32.41218567 67.10375977 C32.72451645 67.77866455 33.03684723 68.45356934 33.35864258 69.14892578 C33.76376823 70.01555344 33.76376823 70.01555344 34.17707825 70.89968872 C35.335717 73.85683748 36.1274772 76.9461702 37 80 C22.48 80 7.96 80 -7 80 C-6.34 78.35 -5.68 76.7 -5 75 C-0.05 75 4.9 75 10 75 C8.52341348 71.85293176 7.04386813 68.7073164 5.5625 65.5625 C5.14162109 64.66466797 4.72074219 63.76683594 4.28710938 62.84179688 C3.88427734 61.98779297 3.48144531 61.13378906 3.06640625 60.25390625 C2.69459229 59.46314697 2.32277832 58.6723877 1.93969727 57.85766602 C1.13895211 56.03502006 1.13895211 56.03502006 0 55 C-1.32 57.97 -2.64 60.94 -4 64 C-12.25 64 -20.5 64 -29 64 C-27.08433853 58.25301558 -25.3344344 53.26648529 -22.77734375 47.89453125 C-22.47535568 47.25574036 -22.17336761 46.61694946 -21.86222839 45.95880127 C-20.89178829 43.90788059 -19.91465307 41.86022942 -18.9375 39.8125 C-17.58743478 36.96467929 -16.24091662 34.11518695 -14.89453125 31.265625 C-14.56157043 30.56208389 -14.22860962 29.85854279 -13.88555908 29.13368225 C-10.46333238 21.89099329 -7.15480713 14.59795626 -3.88256836 7.28637695 C-3.51139893 6.46097412 -3.14022949 5.63557129 -2.7578125 4.78515625 C-2.4395752 4.07238525 -2.12133789 3.35961426 -1.79345703 2.62524414 C-1 1 -1 1 0 0 Z " fill="#FBFBFB" transform="translate(657,466)"/>
<path d="M0 0 C23 0 23 0 31.24609375 6.52734375 C33.36975098 8.70910645 33.36975098 8.70910645 34.90429688 10.61523438 C35.48816162 11.32381592 36.07202637 12.03239746 36.67358398 12.76245117 C37.54672241 13.83910034 37.54672241 13.83910034 38.4375 14.9375 C46.11245298 25.38000715 46.11245298 25.38000715 57.08251953 30.81298828 C59.15408236 30.87386682 61.19291396 30.8176734 63.26304626 30.72947693 C68.6249504 30.60131456 71.00772817 31.85049065 74.9375 35.4375 C76.66523219 37.25423657 78.3530948 39.10968428 80 41 C80.88171875 41.94101562 81.7634375 42.88203125 82.671875 43.8515625 C89 50.67100155 89 50.67100155 89 52 C78.15320203 54.35322966 64.61078366 56.67695783 54.62371826 50.53973389 C42.913849 41.78235175 33.37626947 30.10727307 24 19 C23.67 30.22 23.34 41.44 23 53 C15.41 53 7.82 53 0 53 C0 35.51 0 18.02 0 0 Z " fill="#FAFAFA" transform="translate(713,518)"/>
<path d="M0 0 C5.62062745 -0.11559791 11.23703528 -0.21488201 16.85791016 -0.2746582 C18.76462881 -0.29960683 20.67125379 -0.33357859 22.57763672 -0.37719727 C36.07832029 -0.67807773 48.11959361 -0.55375752 58.5390625 9.33203125 C65.66889073 17.47223621 67.49306472 25.5465477 67.3046875 36.2421875 C66.54477391 45.61445514 62.16347429 52.91031138 55 59 C54.01 59 53.02 59 52 59 C51.08769218 57.38208341 50.23089968 55.7326767 49.40234375 54.0703125 C46.88786366 50.3194306 45.6926652 49.16958448 41.24658203 48.08105469 C36.68588493 47.66785228 32.13512964 47.76631748 27.5625 47.875 C25.95637927 47.87694387 24.35024641 47.87438317 22.74414062 47.8671875 C18.82736175 47.85939487 14.91577307 47.91297576 11 48 C11 46.35 11 44.7 11 43 C11.76143311 42.98541748 12.52286621 42.97083496 13.30737305 42.95581055 C16.76791888 42.88119459 20.22751445 42.78457741 23.6875 42.6875 C25.48477539 42.65366211 25.48477539 42.65366211 27.31835938 42.61914062 C28.47529297 42.58369141 29.63222656 42.54824219 30.82421875 42.51171875 C31.88729248 42.48553467 32.95036621 42.45935059 34.0456543 42.43237305 C37.37211642 41.94554019 39.30117443 40.97530419 42 39 C43.17635297 36.64729407 43.13359359 35.179248 43.125 32.5625 C43.12757813 31.78003906 43.13015625 30.99757813 43.1328125 30.19140625 C43.08382548 27.82104653 43.08382548 27.82104653 42 25 C37.99625304 22.79388211 34.23870253 22.69725191 29.73046875 22.5859375 C29.04946609 22.56657135 28.36846344 22.5472052 27.66682434 22.5272522 C25.50717407 22.46781868 23.34746943 22.421218 21.1875 22.375 C19.71677456 22.33678672 18.24607071 22.29773306 16.77539062 22.2578125 C13.18379211 22.16214817 9.59203087 22.07798425 6 22 C6 25.96 6 29.92 6 34 C4.02 34 2.04 34 0 34 C0 22.78 0 11.56 0 0 Z " fill="#FCFCFC" transform="translate(530,470)"/>
<path d="M0 0 C1.39960414 0.00747549 2.79921886 0.01316223 4.19883728 0.01715088 C7.85360443 0.03230473 11.50771918 0.07149485 15.16223145 0.1159668 C18.90298644 0.15714344 22.64384853 0.17520929 26.38476562 0.1953125 C33.70341999 0.23800181 41.02153989 0.306125 48.33984375 0.390625 C47.93862305 0.84780914 47.53740234 1.30499329 47.12402344 1.77603149 C44.38868512 4.92364834 41.82400441 8.00919746 39.58984375 11.5390625 C35.54722926 17.07528222 31.25057445 22.31850473 24.2411499 23.84881592 C16.63687704 24.89605573 8.96322346 24.78449727 1.30664062 24.58544922 C0.06470695 24.55325035 0.06470695 24.55325035 -1.20231628 24.520401 C-2.78080863 24.4687657 -4.35882675 24.39828922 -5.9355011 24.30662537 C-10.02718555 24.07622519 -10.02718555 24.07622519 -13.64233398 25.75268555 C-14.98536044 27.91396272 -14.99448194 29.3608542 -14.91015625 31.890625 C-14.8946875 32.6640625 -14.87921875 33.4375 -14.86328125 34.234375 C-14.7248733 36.5729057 -14.7248733 36.5729057 -13.66015625 39.390625 C-10.19318835 40.54628097 -7.4108046 40.55038095 -3.75390625 40.6015625 C-2.35545782 40.62966983 -0.95702051 40.65833446 0.44140625 40.6875 C2.62857276 40.72841804 4.81554063 40.76532875 7.00292969 40.79199219 C20.0766181 40.96487726 31.67458871 41.65015397 41.33984375 51.390625 C46.41626778 57.55641041 49.33984375 63.30690467 49.33984375 71.390625 C47.68984375 71.390625 46.03984375 71.390625 44.33984375 71.390625 C44.13230469 70.689375 43.92476562 69.988125 43.7109375 69.265625 C40.94369019 60.74389269 37.30550033 54.20430534 29.15234375 49.953125 C24.08181219 47.65021555 19.47615288 47.2486206 13.94140625 47.21484375 C12.47785019 47.19164635 11.01430847 47.16752905 9.55078125 47.14257812 C7.25771442 47.10750019 4.96517733 47.07812695 2.671875 47.06469727 C0.4485771 47.0491514 -1.77320144 47.00891183 -3.99609375 46.96484375 C-4.67441254 46.96675217 -5.35273132 46.96866058 -6.05160522 46.97062683 C-11.00430075 46.84445357 -13.81468272 45.4425653 -17.66015625 42.390625 C-20.86132724 38.56462652 -21.66015625 35.44687519 -21.66015625 30.390625 C-27.27015625 30.390625 -32.88015625 30.390625 -38.66015625 30.390625 C-38.38157826 21.75470728 -35.62663219 15.75708171 -29.80078125 9.34375 C-20.78123171 0.90145163 -12.05064635 -0.19065757 0 0 Z " fill="#F8F8F8" transform="translate(847.66015625,465.609375)"/>
<path d="M0 0 C8.25 0 16.5 0 25 0 C24 5 24 5 19 16 C36.49 16 53.98 16 72 16 C73.65 19.96 75.3 23.92 77 28 C70.07 30.97 63.14 33.94 56 37 C55.01 35.02 54.02 33.04 53 31 C39.47 31 25.94 31 12 31 C11.01 32.98 10.02 34.96 9 37 C0.75 37 -7.5 37 -16 37 C-14.45962253 32.37886758 -12.75876842 28.04282646 -10.7421875 23.6328125 C-10.2803154 22.61343094 -10.2803154 22.61343094 -9.80911255 21.57345581 C-8.83385762 19.42269444 -7.85450059 17.27383062 -6.875 15.125 C-6.20936254 13.65897803 -5.54399521 12.19283339 -4.87890625 10.7265625 C-3.25622337 7.14937629 -1.62799602 3.57479021 0 0 Z " fill="#F8F8F8" transform="translate(625,534)"/>
<path d="M0 0 C9 0 9 0 11.29272461 1.89648438 C12.12042358 3.23163086 12.12042358 3.23163086 12.96484375 4.59375 C13.61565918 5.60050781 14.26647461 6.60726563 14.93701172 7.64453125 C15.95819092 9.30548828 15.95819092 9.30548828 17 11 C17.75909119 12.1533083 18.52371354 13.30299259 19.29345703 14.44921875 C21.75029429 18.11108429 24.15786319 21.80372697 26.5625 25.5 C27.3819165 26.75406634 28.20157716 28.00797318 29.02148438 29.26171875 C33.73283295 36.47617773 38.37347894 43.72975263 43 51 C43.33 34.17 43.66 17.34 44 0 C46.64 0 49.28 0 52 0 C52 22.11 52 44.22 52 67 C43 67 43 67 40.98448181 65.60015869 C40.56670975 64.94352234 40.14893768 64.28688599 39.71850586 63.61035156 C39.22446762 62.86827454 38.73042938 62.12619751 38.22142029 61.3616333 C37.72425003 60.54620056 37.22707977 59.73076782 36.71484375 58.890625 C35.89675987 57.6348465 35.89675987 57.6348465 35.06214905 56.35369873 C33.32367359 53.67056981 31.63050803 50.96199492 29.9375 48.25 C28.79653892 46.47078092 27.65268481 44.69341352 26.50585938 42.91796875 C24.36967494 39.6039222 22.25239894 36.27926631 20.15209961 32.94238281 C16.51652337 27.24192542 12.75038989 21.62558483 9 16 C8.67 32.83 8.34 49.66 8 67 C5.36 67 2.72 67 0 67 C0 44.89 0 22.78 0 0 Z " fill="#FCFCFC" transform="translate(716,363)"/>
<path d="M0 0 C1.35609569 -0.00467997 1.35609569 -0.00467997 2.73958725 -0.00945449 C5.76346481 -0.01742027 8.78714091 -0.01111635 11.8110199 -0.00482178 C13.98110573 -0.00753225 16.15119064 -0.01109349 18.3212738 -0.01544189 C24.21158518 -0.02456093 30.1018265 -0.02102375 35.9921391 -0.01468372 C42.15441912 -0.0096219 48.31669313 -0.01431563 54.47897339 -0.01745605 C64.82648293 -0.02109488 75.17396391 -0.01629847 85.52146912 -0.0067749 C97.48892648 0.00411235 109.45631572 0.00058175 121.42377144 -0.01042771 C131.69565367 -0.0194995 141.96751538 -0.02078648 152.23940033 -0.01555037 C158.37579366 -0.01243046 164.51215494 -0.01202201 170.64854622 -0.01862335 C176.41626556 -0.02439469 182.18389692 -0.02040374 187.95160675 -0.00883484 C190.070023 -0.00618725 192.18844664 -0.00695502 194.30685997 -0.01136017 C197.19507089 -0.016813 200.0829986 -0.00998456 202.97119141 0 C203.81243405 -0.00446144 204.6536767 -0.00892289 205.52041155 -0.01351953 C209.77600186 0.01507914 213.03951582 0.28497678 216.92210388 2.25396729 C216.92210388 3.57396729 216.92210388 4.89396729 216.92210388 6.25396729 C213.56553141 7.93225352 209.7753555 7.39421037 206.08398438 7.38768005 C205.15742584 7.38994561 204.2308673 7.39221117 203.27623123 7.39454538 C200.15239833 7.40090659 197.02860858 7.40005466 193.9047699 7.39923096 C191.67291711 7.40222111 189.44106484 7.4056233 187.20921326 7.40940857 C181.132875 7.41826703 175.05655081 7.42058745 168.98020673 7.42122436 C163.91528865 7.42217189 158.85037388 7.42584835 153.78545707 7.42939645 C142.52364724 7.43708183 131.26184409 7.44006444 120.00003243 7.4393911 C119.32390341 7.43935114 118.64777439 7.43931119 117.95115662 7.43927002 C117.274205 7.43922914 116.59725338 7.43918826 115.89978807 7.43914614 C104.92499852 7.43873955 93.95024326 7.44831154 82.97546364 7.46240839 C71.71481053 7.47675866 60.45417366 7.48349601 49.19350952 7.48281461 C42.86820342 7.48255904 36.54293612 7.48544249 30.21763802 7.49599266 C24.27105677 7.50563985 18.32455168 7.50577615 12.37796783 7.49847603 C10.19098487 7.49742599 8.00399725 7.49981773 5.81702232 7.50583649 C2.84032628 7.51350031 -0.13610308 7.50894903 -3.11279297 7.50120544 C-4.42250672 7.50892079 -4.42250672 7.50892079 -5.75867933 7.516792 C-11.73548899 7.48223871 -11.73548899 7.48223871 -15.07789612 5.25396729 C-15.07789612 4.26396729 -15.07789612 3.27396729 -15.07789612 2.25396729 C-9.91523646 0.16540064 -5.47058757 -0.02908983 0 0 Z " fill="#218EF9" transform="translate(717.0778961181641,437.74603271484375)"/>
<path d="M0 0 C4.29 0 8.58 0 13 0 C13 10.23 13 20.46 13 31 C16.3 31 19.6 31 23 31 C23 48.16 23 65.32 23 83 C3 75 3 75 0 73 C-0.36076355 69.98812866 -0.36076355 69.98812866 -0.34057617 66.07177734 C-0.34101425 65.35947464 -0.34145233 64.64717194 -0.34190369 63.9132843 C-0.3398101 61.55389188 -0.31645325 59.19520609 -0.29296875 56.8359375 C-0.2873748 55.20212187 -0.28310375 53.56830122 -0.28010559 51.93447876 C-0.26864094 47.63039298 -0.23916008 43.32661002 -0.20599365 39.02264404 C-0.17532751 34.63232521 -0.16160767 30.24195753 -0.14648438 25.8515625 C-0.11429171 17.2342359 -0.06307608 8.6171556 0 0 Z " fill="#F6F6F6" transform="translate(911,488)"/>
<path d="M0 0 C4.63781003 3.47237068 7.45691376 8.26136629 9.26953125 13.69921875 C9.26953125 17.32921875 9.26953125 20.95921875 9.26953125 24.69921875 C-2.28046875 24.69921875 -13.83046875 24.69921875 -25.73046875 24.69921875 C-24.15326345 33.4215174 -24.15326345 33.4215174 -18.73046875 38.69921875 C-15.27867306 40.4251166 -11.51180836 40.0596584 -7.73046875 39.69921875 C-4.24182012 38.25825519 -3.07745508 37.44523937 -1.48046875 34.01171875 C0.26953125 31.69921875 0.26953125 31.69921875 2.453125 31.37890625 C4.74472596 31.38605633 6.98861401 31.48403788 9.26953125 31.69921875 C7.80007961 37.72397049 4.79896825 42.46180779 -0.48046875 45.80859375 C-6.83391524 48.61469928 -14.39657853 48.85154073 -21.06640625 47.078125 C-27.61790209 44.25420438 -31.29914507 38.95222711 -34.10546875 32.57421875 C-35.57461316 23.46552343 -36.03814464 15.00394096 -31.2890625 6.82421875 C-23.35921344 -3.98740504 -11.78654444 -6.47795907 0 0 Z " fill="#F5F5F5" transform="translate(813.73046875,383.30078125)"/>
<path d="M0 0 C2.97 0 5.94 0 9 0 C10.13362562 3.93506736 11.2552722 7.87345756 12.375 11.8125 C12.69210937 12.91271484 13.00921875 14.01292969 13.3359375 15.14648438 C15.29156356 22.05228889 16.86862131 28.91151161 18 36 C18.66 36 19.32 36 20 36 C20.11601563 34.85144531 20.23203125 33.70289063 20.3515625 32.51953125 C20.90866509 28.0754164 22.04531976 23.9545603 23.375 19.6875 C23.8250728 18.20338373 24.27429031 16.71900782 24.72265625 15.234375 C24.94066895 14.51701172 25.15868164 13.79964844 25.38330078 13.06054688 C26.67874022 8.73215857 27.84005853 4.36628375 29 0 C31.97 0 34.94 0 38 0 C38.48919922 2.09988281 38.48919922 2.09988281 38.98828125 4.2421875 C39.42952709 6.11982937 39.87094243 7.99743141 40.3125 9.875 C40.63250977 11.25171875 40.63250977 11.25171875 40.95898438 12.65625 C42.2479237 18.11981369 43.70127016 23.47382503 45.43823242 28.81298828 C46 31 46 31 46 35 C46.66 35 47.32 35 48 35 C48.132854 34.12674072 48.26570801 33.25348145 48.40258789 32.35375977 C48.95305213 29.26355654 49.67902286 26.35025687 50.55859375 23.33984375 C50.86216797 22.29892578 51.16574219 21.25800781 51.47851562 20.18554688 C51.79498047 19.11369141 52.11144531 18.04183594 52.4375 16.9375 C52.75009766 15.86177734 53.06269531 14.78605469 53.38476562 13.67773438 C54.74943933 9.02399508 56.13916486 4.48317502 58 0 C60.64 0 63.28 0 66 0 C64.00583315 7.45865495 61.88172582 14.86669815 59.625 22.25 C59.32263428 23.24201416 59.02026855 24.23402832 58.70874023 25.25610352 C56.26904766 33.21622125 53.69986295 41.12436291 51 49 C48.03 49 45.06 49 42 49 C41.82871582 48.30438965 41.65743164 47.6087793 41.48095703 46.89208984 C40.69814902 43.719101 39.91160948 40.54704846 39.125 37.375 C38.85558594 36.28058594 38.58617187 35.18617188 38.30859375 34.05859375 C37.91220703 32.46337891 37.91220703 32.46337891 37.5078125 30.8359375 C37.26691895 29.86188965 37.02602539 28.8878418 36.77783203 27.88427734 C36.22936067 25.85049183 35.59963748 23.8377791 34.91357422 21.84619141 C33.91999349 18.75074402 33.84617829 16.23025593 34 13 C33.34 13 32.68 13 32 13 C31.9175 14.19625 31.835 15.3925 31.75 16.625 C31.14742299 22.09984257 29.62143122 27.21060151 28.05078125 32.4765625 C26.8228183 36.59411858 25.71303148 40.73737832 24.61328125 44.890625 C24 47 24 47 23 49 C20.03 49 17.06 49 14 49 C13.75354736 48.14470703 13.50709473 47.28941406 13.25317383 46.40820312 C12.10810453 42.43827327 10.96098157 38.46894383 9.8125 34.5 C9.50495285 33.43671982 9.50495285 33.43671982 9.19119263 32.35195923 C6.50249322 23.065059 3.75659249 13.80402462 0.77734375 4.60546875 C0 2 0 2 0 0 Z " fill="#F4F4F4" transform="translate(827,381)"/>
<path d="M0 0 C2.61236519 1.83165835 3.95809034 3.41840791 5.0390625 6.4296875 C5.0390625 7.7496875 5.0390625 9.0696875 5.0390625 10.4296875 C2.3990625 10.7596875 -0.2409375 11.0896875 -2.9609375 11.4296875 C-3.2084375 10.6459375 -3.4559375 9.8621875 -3.7109375 9.0546875 C-5.17805073 5.97374971 -5.85037891 5.61311119 -8.9609375 4.4296875 C-11.44830004 4.11545735 -11.44830004 4.11545735 -14.0234375 4.1796875 C-14.88066406 4.17453125 -15.73789062 4.169375 -16.62109375 4.1640625 C-19.23146548 4.27976262 -19.23146548 4.27976262 -21.9609375 6.4296875 C-22.2111532 9.51334621 -22.2111532 9.51334621 -21.9609375 12.4296875 C-15.26538167 15.60126658 -8.52380903 17.85717898 -1.4140625 19.890625 C2.93666304 21.82974928 4.39592594 23.50472907 7.0390625 27.4296875 C8.14946073 31.40374434 7.24320113 34.8709923 5.8515625 38.6796875 C2.48969924 43.78044554 -1.17943 45.79578321 -6.9609375 47.4296875 C-14.61512813 48.23736897 -20.7976621 48.28162771 -26.9609375 43.4296875 C-30.79853651 39.69307794 -31.5459277 36.7210625 -31.9609375 31.4296875 C-29.3209375 31.0996875 -26.6809375 30.7696875 -23.9609375 30.4296875 C-23.5278125 31.5434375 -23.0946875 32.6571875 -22.6484375 33.8046875 C-21.26182631 37.60481084 -21.26182631 37.60481084 -17.9609375 39.4296875 C-15.35380186 39.7471869 -15.35380186 39.7471869 -12.5234375 39.6796875 C-11.57597656 39.68484375 -10.62851562 39.69 -9.65234375 39.6953125 C-6.8724798 39.42095728 -5.23292416 39.04880443 -2.9609375 37.4296875 C-2.14223565 33.86762089 -2.14223565 33.86762089 -1.9609375 30.4296875 C-7.17139307 27.61278496 -12.35586348 26.0169441 -18.0390625 24.5 C-23.06899698 23.04093504 -26.17193883 21.06851245 -29.9609375 17.4296875 C-31.8290374 13.69348769 -31.50466378 9.49826003 -30.9609375 5.4296875 C-29.20881175 1.63472456 -26.38666598 -0.31487541 -22.8359375 -2.4453125 C-14.82211338 -5.33098453 -7.29072658 -4.09669398 0 0 Z " fill="#F5F5F5" transform="translate(928.9609375,383.5703125)"/>
<path d="M0 0 C15 0 15 0 20 3 C21.50934217 6.01868434 21.17510672 8.67297229 21 12 C20.01 13.485 20.01 13.485 19 15 C19.99 15.804375 19.99 15.804375 21 16.625 C23 19 23 19 23.5 21.9375 C22.89004096 25.67349911 21.61276889 27.31038497 19 30 C15.69428083 31.65285959 12.004622 31.1005118 8.375 31.0625 C5.61125 31.041875 2.8475 31.02125 0 31 C0 20.77 0 10.54 0 0 Z " fill="#BFBFBF" transform="translate(322,598)"/>
<path d="M0 0 C7.59 0 15.18 0 23 0 C23 14.85 23 29.7 23 45 C21.02 45 19.04 45 17 45 C17 35.1 17 25.2 17 15 C11.39 15 5.78 15 0 15 C0 10.05 0 5.1 0 0 Z " fill="#F8F8F8" transform="translate(911,470)"/>
<path d="M0 0 C2.866875 -0.061875 5.73375 -0.12375 8.6875 -0.1875 C10.02880981 -0.22846802 10.02880981 -0.22846802 11.3972168 -0.27026367 C16.08604008 -0.31916583 19.21011422 -0.08722451 23 3 C24.56935594 6.13871188 24.35201103 8.53855822 24 12 C21.5 14.8125 21.5 14.8125 19 17 C19 20.0370281 20.72879009 21.5821579 22.5 24 C26 28.77777778 26 28.77777778 26 31 C23.7265625 31.3359375 23.7265625 31.3359375 21 31 C19.0859375 28.6640625 19.0859375 28.6640625 17.375 25.625 C14.88460138 21.18997204 14.88460138 21.18997204 11 18 C8.67612053 17.60612212 6.34206251 17.26513915 4 17 C4 21.62 4 26.24 4 31 C2.68 31 1.36 31 0 31 C0 20.77 0 10.54 0 0 Z " fill="#BFBFBF" transform="translate(443,598)"/>
<path d="M0 0 C23.95074324 3.60968432 48.78055363 18.92904862 69.56640625 30.63476562 C71.7542578 31.86213981 73.95161099 33.06875957 76.15625 34.265625 C103.1578867 49.01168093 128.22761951 67.02658322 151.54736328 87.04956055 C153.74525549 88.9330527 155.95409809 90.8017779 158.17651367 92.65625 C166.49006998 99.63003482 174.30661303 106.99347132 181.9519043 114.69116211 C183.82183141 116.57188528 185.70232638 118.44156819 187.58398438 120.31054688 C193.78512441 126.50527368 199.68744792 132.74547492 205.10888672 139.64355469 C207.07779206 142.09693377 209.16228703 144.39237193 211.3125 146.6875 C216.83180136 152.7539321 221.63448638 159.32823804 226.48144531 165.93310547 C227.95692598 167.94137224 229.44194101 169.9422156 230.9296875 171.94140625 C236.52320848 179.48120805 241.88360456 187.1274947 247 195 C246.67 195.66 246.34 196.32 246 197 C245.64397705 196.4831665 245.2879541 195.96633301 244.92114258 195.43383789 C233.89509051 179.46343111 222.49247875 163.86284651 210 149 C209.56929199 148.484375 209.13858398 147.96875 208.69482422 147.4375 C194.96037208 131.02775655 180.34849524 114.58481784 164 100.72265625 C161.56610869 98.62627721 159.22865575 96.4360262 156.875 94.25 C151.12872087 89.01607772 145.09166465 84.24562447 138.93505859 79.50683594 C136.94429935 77.95662574 134.9805604 76.37667526 133.01953125 74.7890625 C115.85682895 60.99938838 97.15065267 48.85739819 78 38 C77.23429688 37.56445801 76.46859375 37.12891602 75.6796875 36.68017578 C54.39549237 24.6501576 32.56877741 14.00036088 9.67138672 5.42553711 C8.55006348 5.00280518 7.42874023 4.58007324 6.2734375 4.14453125 C4.77949463 3.59309448 4.77949463 3.59309448 3.25537109 3.03051758 C1 2 1 2 0 0 Z " fill="#040F20" transform="translate(669,30)"/>
<path d="M0 0 C2.5 1.625 2.5 1.625 4 4 C3.91070941 8.37523879 2.97651656 10.02348344 0 13 C0.1762044 15.03871245 0.1762044 15.03871245 1 17 C1.33 17.99 1.66 18.98 2 20 C2.66 20 3.32 20 4 20 C4 19.01 4 18.02 4 17 C5.32 17 6.64 17 8 17 C7.773125 18.258125 7.54625 19.51625 7.3125 20.8125 C6.79806803 24.14138709 6.79806803 24.14138709 8.4375 27 C8.953125 27.33 9.46875 27.66 10 28 C9.67 28.99 9.34 29.98 9 31 C8.071875 30.62875 7.14375 30.2575 6.1875 29.875 C4.6096875 29.441875 4.6096875 29.441875 3 29 C2.01 29.66 1.02 30.32 0 31 C-4.49510486 31.64537399 -8.59895562 31.76723859 -12.625 29.5625 C-14.67201275 25.74761261 -14.93829292 22.22619537 -14 18 C-11.5 15.4375 -11.5 15.4375 -9 14 C-9.495 12.9171875 -9.495 12.9171875 -10 11.8125 C-11.04678751 8.86841014 -11.47440644 7.08364186 -11 4 C-8.00375133 -0.43444803 -5.14731601 -0.73533086 0 0 Z " fill="#BFBFBF" transform="translate(598,598)"/>
<path d="M0 0 C0 5.53927405 -4.72296903 9.73000591 -8 14 C-8.43344727 14.56783203 -8.86689453 15.13566406 -9.31347656 15.72070312 C-14.53306952 22.53674426 -19.87890813 29.13730382 -25.7121582 35.4440918 C-27.86371273 37.84774396 -29.85268015 40.318532 -31.84375 42.85546875 C-37.43091288 49.71348455 -43.62159155 55.92265849 -49.89208984 62.15283203 C-51.87181424 64.1218315 -53.84060754 66.10130727 -55.80859375 68.08203125 C-62.17192736 74.45170115 -68.55908318 80.55746523 -75.64941406 86.12084961 C-78.1597788 88.12773342 -80.51701801 90.25451859 -82.875 92.4375 C-120.4828885 126.56754301 -168.29428026 152.98930389 -214.98486328 172.16455078 C-216.63671512 172.84938686 -218.27219112 173.57359896 -219.90234375 174.30859375 C-222 175 -222 175 -225 174 C-219.43232062 171.44521689 -213.85394297 168.92204837 -208.23046875 166.4921875 C-168.14370711 149.16512761 -130.05408368 127.4818882 -96 100 C-95.0203125 99.21882812 -94.040625 98.43765625 -93.03125 97.6328125 C-90.32868394 95.45056807 -87.65907339 93.23499703 -85 91 C-84.2265625 90.35393799 -84.2265625 90.35393799 -83.4375 89.69482422 C-67.0044518 75.94086672 -50.55929272 61.30472148 -36.6640625 44.9453125 C-34.69860986 42.64767068 -32.66270129 40.42126877 -30.625 38.1875 C-19.71928437 26.07207473 -9.75232444 13.05459308 0 0 Z " fill="#040F20" transform="translate(902,788)"/>
<path d="M0 0 C3.85749863 0.9474558 5.18442733 1.76521267 7.5625 4.875 C9.16040826 9.66872479 9.11646763 13.47689122 7.25 18.1875 C5.5625 20.875 5.5625 20.875 2.5625 22.875 C-0.16033905 23.18754378 -2.68192486 23.00833428 -5.4375 22.875 C-5.7675 22.545 -6.0975 22.215 -6.4375 21.875 C-6.7675 24.845 -7.0975 27.815 -7.4375 30.875 C-8.4275 30.875 -9.4175 30.875 -10.4375 30.875 C-10.4375 20.975 -10.4375 11.075 -10.4375 0.875 C-9.1175 1.205 -7.7975 1.535 -6.4375 1.875 C-3.4375 -0.125 -3.4375 -0.125 0 0 Z " fill="#C0C0C0" transform="translate(690.4375,606.125)"/>
<path d="M0 0 C2.7109375 1.41015625 2.7109375 1.41015625 5 4 C5.75349934 7.24489028 5.79042369 10.42874181 5.8125 13.75 C5.83763672 14.63816406 5.86277344 15.52632812 5.88867188 16.44140625 C5.9474526 18.62804918 5.98379539 20.81269532 6 23 C5.05125 22.814375 4.1025 22.62875 3.125 22.4375 C0.10131207 21.71313368 0.10131207 21.71313368 -2 23 C-4.05859375 23.203125 -4.05859375 23.203125 -6.4375 23.25 C-7.21996094 23.27578125 -8.00242187 23.3015625 -8.80859375 23.328125 C-11.53138093 22.92043494 -12.36918303 22.18294309 -14 20 C-14.5 17.0625 -14.5 17.0625 -14 14 C-11.74589864 11.21994166 -9.96339044 10.17502819 -6.44140625 9.53515625 C-3.95817238 9.27802707 -1.49423419 9.09686346 1 9 C0.67 7.68 0.34 6.36 0 5 C-3.35458155 4.23477199 -3.35458155 4.23477199 -7 4 C-8.68798827 5.43750191 -8.68798827 5.43750191 -10 7 C-12.1875 6.6875 -12.1875 6.6875 -14 6 C-9.94212757 0.72476584 -6.87439444 -1.3501063 0 0 Z " fill="#B8B8B8" transform="translate(551,606)"/>
<path d="M0 0 C4.6 2.2 4.6 2.2 6 5 C6.08308638 6.37548156 6.10736016 7.75485796 6.09765625 9.1328125 C6.09443359 9.93847656 6.09121094 10.74414062 6.08789062 11.57421875 C6.07951172 12.41597656 6.07113281 13.25773438 6.0625 14.125 C6.05798828 14.97449219 6.05347656 15.82398438 6.04882812 16.69921875 C6.03702874 18.79950909 6.01909306 20.8997633 6 23 C4.68 23 3.36 23 2 23 C2 22.34 2 21.68 2 21 C1.01 21.66 0.02 22.32 -1 23 C-3.41015625 23.265625 -3.41015625 23.265625 -6.0625 23.25 C-6.94035156 23.25515625 -7.81820313 23.2603125 -8.72265625 23.265625 C-11 23 -11 23 -13 21 C-13.4375 17.625 -13.4375 17.625 -13 14 C-10.75358652 11.15454293 -9.00266423 10.18063264 -5.44140625 9.5390625 C-2.95794247 9.27838687 -0.49479219 9.09688513 2 9 C1.00864359 6.3726974 1.00864359 6.3726974 -1 4 C-4.62599422 3.58274322 -4.62599422 3.58274322 -8 4 C-8.33 4.99 -8.66 5.98 -9 7 C-9.99 7 -10.98 7 -12 7 C-11.64393309 4.41851492 -11.16671807 3.17954253 -9.375 1.25 C-6.05074069 -0.49961016 -3.71021118 -0.39054855 0 0 Z " fill="#B8B8B8" transform="translate(420,606)"/>
<path d="M0 0 C2.703125 1.41796875 2.703125 1.41796875 5 4 C5.75436362 7.2446272 5.79042432 10.4288368 5.8125 13.75 C5.83763672 14.63816406 5.86277344 15.52632812 5.88867188 16.44140625 C5.9474526 18.62804918 5.98379539 20.81269532 6 23 C4.68 23 3.36 23 2 23 C2 22.34 2 21.68 2 21 C1.15115234 21.48533203 1.15115234 21.48533203 0.28515625 21.98046875 C-2.18674007 23.0833148 -3.87134914 23.29883934 -6.5625 23.3125 C-7.70912109 23.33763672 -7.70912109 23.33763672 -8.87890625 23.36328125 C-11.53381889 22.90857245 -12.39446218 22.13071374 -14 20 C-14.5 17.0625 -14.5 17.0625 -14 14 C-11.74589864 11.21994166 -9.96339044 10.17502819 -6.44140625 9.53515625 C-3.95817238 9.27802707 -1.49423419 9.09686346 1 9 C0.67 7.68 0.34 6.36 0 5 C-3.35458155 4.23477199 -3.35458155 4.23477199 -7 4 C-8.77190909 5.35444301 -8.77190909 5.35444301 -10 7 C-10.99 7 -11.98 7 -13 7 C-12.64978759 4.46096004 -12.15988127 3.17906702 -10.4375 1.25 C-7.04227462 -0.49114122 -3.68475561 -0.87144127 0 0 Z " fill="#BBBBBB" transform="translate(739,606)"/>
<path d="M0 0 C2.83792288 2.02303359 4.7285354 3.56432817 5.39672852 7.09814453 C5.49205618 9.52175509 5.43675967 11.89039236 5.3125 14.3125 C5.28994141 15.14845703 5.26738281 15.98441406 5.24414062 16.84570312 C5.1855061 18.89791149 5.09583215 20.94919202 5 23 C4.030625 22.814375 3.06125 22.62875 2.0625 22.4375 C1.051875 22.293125 0.04125 22.14875 -1 22 C-1.33 22.33 -1.66 22.66 -2 23 C-3.9609375 23.16796875 -3.9609375 23.16796875 -6.375 23.1875 C-7.16648437 23.20167969 -7.95796875 23.21585938 -8.7734375 23.23046875 C-11 23 -11 23 -14 21 C-14.5 17.625 -14.5 17.625 -14 14 C-11.75358652 11.15454293 -10.00266423 10.18063264 -6.44140625 9.5390625 C-3.95794247 9.27838687 -1.49479219 9.09688513 1 9 C0.67 7.68 0.34 6.36 0 5 C-4.48133574 4.27743171 -4.48133574 4.27743171 -9 4 C-9.33 4.99 -9.66 5.98 -10 7 C-11.32 7 -12.64 7 -14 7 C-11.45933615 0.86006235 -6.65342815 -1.88327948 0 0 Z " fill="#B8B8B8" transform="translate(486,606)"/>
<path d="M0 0 C2.16015625 0.59765625 2.16015625 0.59765625 4.66015625 2.72265625 C6.16015625 5.59765625 6.16015625 5.59765625 7.16015625 12.59765625 C1.55015625 12.59765625 -4.05984375 12.59765625 -9.83984375 12.59765625 C-9.17984375 14.57765625 -8.51984375 16.55765625 -7.83984375 18.59765625 C-6.56109375 18.65953125 -5.28234375 18.72140625 -3.96484375 18.78515625 C-3.24554688 18.81996094 -2.52625 18.85476563 -1.78515625 18.890625 C-0.82222656 18.74560547 -0.82222656 18.74560547 0.16015625 18.59765625 C0.82015625 17.60765625 1.48015625 16.61765625 2.16015625 15.59765625 C3.48015625 15.59765625 4.80015625 15.59765625 6.16015625 15.59765625 C5.593539 18.88403631 4.78561766 20.51940853 2.16015625 22.59765625 C-1.23089658 23.28736191 -4.43596709 23.18939876 -7.83984375 22.59765625 C-11.18609399 20.07089586 -12.51962222 18.55832083 -13.83984375 14.59765625 C-14.37816902 8.89140842 -13.4574221 6.04210965 -9.83984375 1.59765625 C-6.08687174 -0.90432509 -4.31750915 -0.61076959 0 0 Z " fill="#B7B7B7" transform="translate(361.83984375,606.40234375)"/>
<path d="M0 0 C3.37696173 2.0386843 6.22246725 4.4449345 8 8 C8 9.98 8 11.96 8 14 C-0.58 14 -9.16 14 -18 14 C-16.86486486 6.05405405 -16.86486486 6.05405405 -12 2 C-7.96857086 -0.68761942 -4.73667363 -0.92537664 0 0 Z " fill="#040404" transform="translate(806,387)"/>
<path d="M0 0 C0.99 0.495 0.99 0.495 2 1 C1.05382812 1.64324219 0.10765625 2.28648438 -0.8671875 2.94921875 C-17.09210978 14.01657737 -32.93716905 25.38350474 -48 38 C-48.59232422 38.49322754 -49.18464844 38.98645508 -49.79492188 39.49462891 C-62.80142338 50.35150517 -75.0584428 61.98864595 -87.0625 73.9375 C-87.75255127 74.62287842 -88.44260254 75.30825684 -89.15356445 76.0144043 C-93.63841907 80.51344631 -97.86982734 85.17482061 -102 90 C-103.11702002 91.29571732 -104.23420567 92.59129187 -105.3515625 93.88671875 C-106.99652765 95.7960533 -108.64079869 97.70592559 -110.28125 99.61914062 C-113.39506521 103.22833552 -116.58176168 106.67706573 -120 110 C-117.42879365 104.26423199 -113.01049519 99.76912639 -109 95 C-108.30953331 94.17871361 -108.30953331 94.17871361 -107.6051178 93.34083557 C-99.72332429 84.00812641 -91.47162359 75.1537126 -82.80615234 66.54541016 C-80.86186462 64.61193768 -78.92863436 62.66786287 -76.99609375 60.72265625 C-69.96549067 53.68456483 -62.80796641 47.173438 -55 41 C-53.27448518 39.53463972 -51.57205507 38.04633149 -49.87060547 36.55322266 C-34.91869878 23.44746176 -17.75215926 8.99487993 0 0 Z " fill="#0B0A10" transform="translate(228,78)"/>
<path d="M0 0 C1.32 0 2.64 0 4 0 C4.33 5.28 4.66 10.56 5 16 C6.60875 14.2675 6.60875 14.2675 8.25 12.5 C10.078125 10.53125 10.078125 10.53125 12 9 C13.32 9 14.64 9 16 9 C14.71480435 11.86697492 13.42870746 13.97607712 11 16 C10.34 16 9.68 16 9 16 C9.6496875 16.99902344 10.299375 17.99804688 10.96875 19.02734375 C11.81261881 20.33065225 12.65636236 21.63404185 13.5 22.9375 C13.92925781 23.59685547 14.35851562 24.25621094 14.80078125 24.93554688 C18 29.88671875 18 29.88671875 18 31 C15.69921875 31.3125 15.69921875 31.3125 13 31 C11.26953125 28.8125 11.26953125 28.8125 9.8125 26 C8.92178148 24.30786982 7.99454393 22.63326862 7 21 C6.34 21 5.68 21 5 21 C4.67 24.3 4.34 27.6 4 31 C2.68 31 1.36 31 0 31 C0 20.77 0 10.54 0 0 Z " fill="#BCBCBC" transform="translate(496,598)"/>
<path d="M0 0 C1.625 1.3125 1.625 1.3125 2.375 3.9375 C2.49875 5.113125 2.49875 5.113125 2.625 6.3125 C-0.24224686 5.73905063 -1.2364515 5.4510485 -3.375 3.3125 C-5.95854218 3.14562552 -5.95854218 3.14562552 -8.375 3.3125 C-8.375 4.6325 -8.375 5.9525 -8.375 7.3125 C-4.745 8.6325 -1.115 9.9525 2.625 11.3125 C4.05576923 17.5125 4.05576923 17.5125 2.3125 20.75 C-1.80178858 23.14202824 -5.7334023 23.09123981 -10.375 22.3125 C-13 20.5 -13 20.5 -14.375 18.3125 C-14.375 17.3225 -14.375 16.3325 -14.375 15.3125 C-13.055 15.3125 -11.735 15.3125 -10.375 15.3125 C-9.715 16.3025 -9.055 17.2925 -8.375 18.3125 C-4.79142759 18.56265873 -4.79142759 18.56265873 -1.375 18.3125 C-1.045 16.9925 -0.715 15.6725 -0.375 14.3125 C-1.14585937 14.11914062 -1.91671875 13.92578125 -2.7109375 13.7265625 C-3.71382812 13.46617187 -4.71671875 13.20578125 -5.75 12.9375 C-6.74773438 12.68226563 -7.74546875 12.42703125 -8.7734375 12.1640625 C-11.375 11.3125 -11.375 11.3125 -13.375 9.3125 C-13.75 5.875 -13.75 5.875 -13.375 2.3125 C-9.95481386 -1.92853082 -4.88554754 -1.41423745 0 0 Z " fill="#BBBBBB" transform="translate(762.375,606.6875)"/>
<path d="M0 0 C2 2 2 2 2 6 C1.01 6 0.02 6 -1 6 C-1.433125 5.505 -1.86625 5.01 -2.3125 4.5 C-4.02209709 2.6685437 -4.02209709 2.6685437 -7.1875 2.8125 C-8.115625 2.874375 -9.04375 2.93625 -10 3 C-9.88514256 4.97503715 -9.88514256 4.97503715 -9 7 C-6.7507886 8.07128705 -6.7507886 8.07128705 -4.0625 8.625 C0.81904762 9.81904762 0.81904762 9.81904762 3 12 C3.375 15.4375 3.375 15.4375 3 19 C0.87674761 21.11353499 -0.50450578 21.92015733 -3.47265625 22.3984375 C-4.32730469 22.39070312 -5.18195312 22.38296875 -6.0625 22.375 C-6.91972656 22.38273438 -7.77695312 22.39046875 -8.66015625 22.3984375 C-11 22 -11 22 -12.80859375 20.7265625 C-14 19 -14 19 -14 15 C-13.01 15 -12.02 15 -11 15 C-10.34 15.99 -9.68 16.98 -9 18 C-5.41642759 18.25015873 -5.41642759 18.25015873 -2 18 C-2 16.68 -2 15.36 -2 14 C-5.63 12.68 -9.26 11.36 -13 10 C-13.8125 6.75 -13.8125 6.75 -14 3 C-10.25888743 -1.98815009 -5.55746002 -1.55041124 0 0 Z " fill="#BDBDBD" transform="translate(672,607)"/>
<path d="M0 0 C2.475 0.495 2.475 0.495 5 1 C5.67031719 2.9570868 6.33614683 4.91571113 7 6.875 C7.556875 8.51082031 7.556875 8.51082031 8.125 10.1796875 C9 13 9 13 9 15 C9.66 15 10.32 15 11 15 C11.12246094 14.28457031 11.24492188 13.56914063 11.37109375 12.83203125 C12.01135375 9.94887287 12.93551556 7.41407527 14.0625 4.6875 C14.60583984 3.36298828 14.60583984 3.36298828 15.16015625 2.01171875 C15.43730469 1.34785156 15.71445312 0.68398438 16 0 C17.32 0.33 18.64 0.66 20 1 C18.40631317 5.25400388 16.79825938 9.50243425 15.1875 13.75 C14.73568359 14.9565625 14.28386719 16.163125 13.81835938 17.40625 C13.15610352 19.14648438 13.15610352 19.14648438 12.48046875 20.921875 C12.07723389 21.99018555 11.67399902 23.05849609 11.25854492 24.15917969 C10.07754727 26.82495828 8.97694033 28.86259477 7 31 C4.3125 31.25 4.3125 31.25 2 31 C2 29.68 2 28.36 2 27 C3.32 26.67 4.64 26.34 6 26 C7.85608956 19.89417532 5.72183974 15.32630758 3.5625 9.625 C3.22412109 8.69816406 2.88574219 7.77132812 2.53710938 6.81640625 C1.70376302 4.53937537 0.85785286 2.26788688 0 0 Z " fill="#BDBDBD" transform="translate(515,607)"/>
<path d="M0 0 C3.51358424 0.81565348 4.42231174 1.0509662 6.5 3.8125 C6.84057617 5.8972168 6.84057617 5.8972168 6.79296875 8.26171875 C6.78330078 9.10927734 6.77363281 9.95683594 6.76367188 10.83007812 C6.73853516 11.71115234 6.71339844 12.59222656 6.6875 13.5 C6.66719727 14.83901367 6.66719727 14.83901367 6.64648438 16.20507812 C6.61114079 18.40816166 6.56180493 20.61002582 6.5 22.8125 C5.51 22.8125 4.52 22.8125 3.5 22.8125 C3.43941406 21.59691406 3.37882813 20.38132812 3.31640625 19.12890625 C3.23201668 17.54425772 3.1473679 15.95962298 3.0625 14.375 C3.02318359 13.57255859 2.98386719 12.77011719 2.94335938 11.94335938 C3.0945704 8.06010439 3.0945704 8.06010439 1.5 4.8125 C-1.45817107 4.56244614 -1.45817107 4.56244614 -4.5 4.8125 C-7.43447357 7.74697357 -6.96158423 10.99509456 -7.125 14.9375 C-7.16367187 15.69160156 -7.20234375 16.44570313 -7.2421875 17.22265625 C-7.33651031 19.08553184 -7.41934662 20.94898255 -7.5 22.8125 C-8.49 22.8125 -9.48 22.8125 -10.5 22.8125 C-10.5 15.5525 -10.5 8.2925 -10.5 0.8125 C-9.18 1.1425 -7.86 1.4725 -6.5 1.8125 C-3.5 -0.1875 -3.5 -0.1875 0 0 Z " fill="#C4C4C4" transform="translate(646.5,606.1875)"/>
<path d="M0 0 C2.55687669 0.34552388 4.57501375 0.75087013 6.8125 2.0625 C8.74612191 5.2173568 8.49607138 8.45860153 8 12 C6.875 15 6.875 15 5 17 C2 17.625 2 17.625 -1 17 C-3.53965865 14.20637548 -3.96998561 12.2401151 -4.4375 8.5 C-3.93351879 4.4681503 -2.790071 2.87726072 0 0 Z " fill="#080808" transform="translate(687,609)"/>
<path d="M0 0 C2.375 1 2.375 1 4 2 C3.75 4.875 3.75 4.875 3 8 C0.9375 9.375 0.9375 9.375 -1 10 C-1 10.66 -1 11.32 -1 12 C-0.34 12.33 0.32 12.66 1 13 C-0.4370809 13.05422947 -1.87475462 13.09289723 -3.3125 13.125 C-4.11300781 13.14820313 -4.91351563 13.17140625 -5.73828125 13.1953125 C-8 13 -8 13 -11 11 C-11.5 7.625 -11.5 7.625 -11 4 C-7.6437354 0.15016708 -5.0126452 -0.63991215 0 0 Z " fill="#B6B6B6" transform="translate(483,616)"/>
<path d="M0 0 C2.29141286 -0.05384521 4.58318188 -0.09272087 6.875 -0.125 C8.78925781 -0.15980469 8.78925781 -0.15980469 10.7421875 -0.1953125 C14 0 14 0 16 2 C16.375 4.4375 16.375 4.4375 16 7 C13.65544882 9.36698708 12.329252 9.96801308 8.984375 10.29296875 C7.91703125 10.25816406 6.8496875 10.22335937 5.75 10.1875 C4.13351562 10.14689453 4.13351562 10.14689453 2.484375 10.10546875 C1.66453125 10.07066406 0.8446875 10.03585937 0 10 C0 6.7 0 3.4 0 0 Z " fill="#060606" transform="translate(447,602)"/>
<path d="M0 0 C1.93681161 -0.08107583 3.8745934 -0.13922475 5.8125 -0.1875 C6.89144531 -0.22230469 7.97039062 -0.25710938 9.08203125 -0.29296875 C12 0 12 0 13.8984375 1.31640625 C15 3 15 3 14.8125 6.125 C14.544375 7.07375 14.27625 8.0225 14 9 C11.23547967 10.38226016 8.9538637 10.09525387 5.875 10.0625 C4.77929688 10.05347656 3.68359375 10.04445313 2.5546875 10.03515625 C1.29011719 10.01775391 1.29011719 10.01775391 0 10 C0 6.7 0 3.4 0 0 Z " fill="#040404" transform="translate(326,615)"/>
<path d="M0 0 C0.66 0 1.32 0 2 0 C2 2.31 2 4.62 2 7 C3.32 7 4.64 7 6 7 C6 7.99 6 8.98 6 10 C5.01 10 4.02 10 3 10 C3 15.28 3 20.56 3 26 C4.32 26 5.64 26 7 26 C7 26.99 7 27.98 7 29 C4.125 29.125 4.125 29.125 1 29 C-1 27 -1 27 -1.1953125 23.0859375 C-1.18200376 21.51550649 -1.15813602 19.94513779 -1.125 18.375 C-1.11597656 17.57320312 -1.10695313 16.77140625 -1.09765625 15.9453125 C-1.07406223 13.96341477 -1.03819065 11.98167019 -1 10 C-1.99 10 -2.98 10 -4 10 C-4 9.01 -4 8.02 -4 7 C-3.01 7 -2.02 7 -1 7 C-1.020625 6.030625 -1.04125 5.06125 -1.0625 4.0625 C-1 1 -1 1 0 0 Z " fill="#BABABA" transform="translate(563,600)"/>
<path d="M0 0 C0.66 0 1.32 0 2 0 C2 2.31 2 4.62 2 7 C3.32 7 4.64 7 6 7 C6 7.99 6 8.98 6 10 C5.01 10 4.02 10 3 10 C3 15.28 3 20.56 3 26 C3.99 26 4.98 26 6 26 C6 26.99 6 27.98 6 29 C3.625 29.125 3.625 29.125 1 29 C-1 27 -1 27 -1.1953125 23.0859375 C-1.18200376 21.51550649 -1.15813602 19.94513779 -1.125 18.375 C-1.11597656 17.57320312 -1.10695313 16.77140625 -1.09765625 15.9453125 C-1.07406223 13.96341477 -1.03819065 11.98167019 -1 10 C-1.99 10 -2.98 10 -4 10 C-4 9.01 -4 8.02 -4 7 C-3.01 7 -2.02 7 -1 7 C-1.020625 6.030625 -1.04125 5.06125 -1.0625 4.0625 C-1 1 -1 1 0 0 Z " fill="#BBBBBB" transform="translate(398,600)"/>
<path d="M0 0 C1.32 0 2.64 0 4 0 C4 10.23 4 20.46 4 31 C2.68 31 1.36 31 0 31 C0 20.77 0 10.54 0 0 Z " fill="#C6C6C6" transform="translate(625,598)"/>
<path d="M0 0 C-0.33 1.32 -0.66 2.64 -1 4 C-2.65 4 -4.3 4 -6 4 C-7.585869 7.171738 -7.37866445 10.63513822 -7.5625 14.125 C-7.60568359 14.87910156 -7.64886719 15.63320313 -7.69335938 16.41015625 C-7.7994832 18.27321888 -7.90025001 20.13658524 -8 22 C-9.32 22 -10.64 22 -12 22 C-12 14.74 -12 7.48 -12 0 C-4.125 -1.125 -4.125 -1.125 0 0 Z " fill="#B9B9B9" transform="translate(724,607)"/>
<path d="M0 0 C2.625 0.375 2.625 0.375 5 1 C5 1.99 5 2.98 5 4 C3.02 4.66 1.04 5.32 -1 6 C-1.33 11.61 -1.66 17.22 -2 23 C-3.32 23 -4.64 23 -6 23 C-6 15.74 -6 8.48 -6 1 C-4.68 1.33 -3.36 1.66 -2 2 C-1.34 1.34 -0.68 0.68 0 0 Z " fill="#BBBBBB" transform="translate(379,606)"/>
<path d="M0 0 C1.79133978 -0.05391993 3.58313899 -0.09275571 5.375 -0.125 C6.37273437 -0.14820313 7.37046875 -0.17140625 8.3984375 -0.1953125 C11 0 11 0 13 2 C13.25 4.5 13.25 4.5 13 7 C11 9 11 9 8.3984375 9.1953125 C7.40070313 9.17210937 6.40296875 9.14890625 5.375 9.125 C3.87066406 9.09792969 3.87066406 9.09792969 2.3359375 9.0703125 C1.56507813 9.04710937 0.79421875 9.02390625 0 9 C0 6.03 0 3.06 0 0 Z " fill="#010101" transform="translate(326,602)"/>
<path d="M0 0 C3.7952131 1.49097658 5.61042731 3.75700849 8 7 C6.125 10.875 6.125 10.875 5 12 C2.0625 12.1875 2.0625 12.1875 -1 12 C-3 10 -3 10 -3.3125 6.5625 C-3 3 -3 3 -1.5 1.0625 C-1.005 0.711875 -0.51 0.36125 0 0 Z " fill="#090909" transform="translate(591,614)"/>
<path d="M0 0 C1.32 0 2.64 0 4 0 C4 7.26 4 14.52 4 22 C2.68 22 1.36 22 0 22 C0 14.74 0 7.48 0 0 Z " fill="#BABABA" transform="translate(770,607)"/>
<path d="M0 0 C1.32 0 2.64 0 4 0 C4 7.26 4 14.52 4 22 C2.68 22 1.36 22 0 22 C0 14.74 0 7.48 0 0 Z " fill="#BABABA" transform="translate(703,607)"/>
<path d="M0 0 C1.32 0 2.64 0 4 0 C4 7.26 4 14.52 4 22 C2.68 22 1.36 22 0 22 C0 14.74 0 7.48 0 0 Z " fill="#B3B3B3" transform="translate(387,607)"/>
<path d="M0 0 C0.33 0.99 0.66 1.98 1 3 C-1.31 3.66 -3.62 4.32 -6 5 C-6 6.32 -6 7.64 -6 9 C-3.69 9.33 -1.38 9.66 1 10 C1 10.99 1 11.98 1 13 C-0.43655854 13.08131463 -1.8744483 13.13933559 -3.3125 13.1875 C-4.51326172 13.23970703 -4.51326172 13.23970703 -5.73828125 13.29296875 C-8 13 -8 13 -9.76171875 11.671875 C-11 10 -11 10 -11.5 7.0625 C-11 4 -11 4 -8.875 1.625 C-5.60790131 -0.221621 -3.69212837 -0.3434538 0 0 Z " fill="#B9B9B9" transform="translate(548,616)"/>
<path d="M0 0 C-0.75 5.75 -0.75 5.75 -3 8 C-6.625 8.125 -6.625 8.125 -10 8 C-10.66 6.68 -11.32 5.36 -12 4 C-8.62023826 -0.09129053 -5.09137623 0 0 0 Z " fill="#111111" transform="translate(422,618)"/>
<path d="M0 0 C0.21917317 2.70313576 0.32851983 4.43958382 -1.0625 6.8125 C-3.99268751 8.60842137 -6.6472953 8.18977574 -10 8 C-10.33 6.35 -10.66 4.7 -11 3 C-9.73160474 2.49384702 -8.46016898 1.99530901 -7.1875 1.5 C-6.12595703 1.08234375 -6.12595703 1.08234375 -5.04296875 0.65625 C-3 0 -3 0 0 0 Z " fill="#090909" transform="translate(552,618)"/>
<path d="M0 0 C0.21917317 2.70313576 0.32851983 4.43958382 -1.0625 6.8125 C-3.99268751 8.60842137 -6.6472953 8.18977574 -10 8 C-10.33 6.35 -10.66 4.7 -11 3 C-7.48731871 0.65821247 -4.24893746 0 0 0 Z " fill="#070707" transform="translate(740,618)"/>
<path d="M0 0 C-0.75 5.75 -0.75 5.75 -3 8 C-6.625 8.125 -6.625 8.125 -10 8 C-10.33 6.35 -10.66 4.7 -11 3 C-9.54293274 2.49632243 -8.08429904 1.99717444 -6.625 1.5 C-5.81289063 1.2215625 -5.00078125 0.943125 -4.1640625 0.65625 C-2 0 -2 0 0 0 Z " fill="#070707" transform="translate(487,618)"/>
<path d="M0 0 C3.625 0.3125 3.625 0.3125 5.5625 2.1875 C6.625 4.3125 6.625 4.3125 6.625 6.3125 C2.335 6.3125 -1.955 6.3125 -6.375 6.3125 C-3.99807692 0.37019231 -3.99807692 0.37019231 0 0 Z " fill="#141414" transform="translate(358.375,609.6875)"/>
<path d="M0 0 C1.65 0.33 3.3 0.66 5 1 C5.6875 2.8125 5.6875 2.8125 6 5 C4.6875 6.75 4.6875 6.75 3 8 C2.34 8 1.68 8 1 8 C-1 5 -1 5 -0.625 2.3125 C-0.41875 1.549375 -0.2125 0.78625 0 0 Z " fill="#0D0D0D" transform="translate(592,601)"/>
<path d="M0 0 C1.32 0 2.64 0 4 0 C4 1.65 4 3.3 4 5 C2.68 5 1.36 5 0 5 C0 3.35 0 1.7 0 0 Z " fill="#A0A0A0" transform="translate(770,598)"/>
<path d="M0 0 C1.32 0 2.64 0 4 0 C4 1.65 4 3.3 4 5 C2.68 5 1.36 5 0 5 C0 3.35 0 1.7 0 0 Z " fill="#A0A0A0" transform="translate(703,598)"/>
<path d="M0 0 C1.32 0 2.64 0 4 0 C4 1.65 4 3.3 4 5 C2.68 5 1.36 5 0 5 C0 3.35 0 1.7 0 0 Z " fill="#9A9A9A" transform="translate(387,598)"/>
</svg>
